<svg xmlns="http://www.w3.org/2000/svg" viewBox="0 0 64 64" role="img" aria-label="Malets Danila favicon">
  <rect width="64" height="64" rx="14" fill="#171615"/>
  <rect x="5" y="5" width="54" height="54" rx="11" fill="none" stroke="#ff6a3d" stroke-width="2"/>
  <path d="M15 45V19h7l10 15 10-15h7v26h-7V30L34 42h-4L22 30v15h-7Z" fill="#e8ddc8"/>
  <path d="M43 45c-5 0-9-4-9-9s4-9 9-9h6v6h-6c-2 0-3 1-3 3s1 3 3 3h6v6h-6Z" fill="#ff6a3d"/>
  <path d="M12 13h12M40 51h12" stroke="#8ec5c2" stroke-width="2" stroke-linecap="round"/>
</svg>
